<svg viewBox="0 0 100 100" xmlns="http://www.w3.org/2000/svg">
    <!-- Sun -->
    <circle cx="50" cy="50" r="20" fill="#FFD700"/>
    <!-- Sun rays -->
    <path d="M50 20 L50 10 M50 80 L50 90 M20 50 L10 50 M80 50 L90 50 M26 26 L19 19 M74 74 L81 81 M74 26 L81 19 M26 74 L19 81" 
          stroke="#FFD700" 
          stroke-width="4"
          stroke-linecap="round"/>
    <!-- Cloud -->
    <path d="M25 60 Q25 50 35 50 Q35 40 45 40 Q55 40 55 50 Q65 50 65 60 Q65 70 55 70 L35 70 Q25 70 25 60Z" 
          fill="white" 
          stroke="#CCCCCC" 
          stroke-width="2"/>
</svg>